<svg xmlns="http://www.w3.org/2000/svg" viewBox="0 0 1200 512" width="1200" height="512">
  <defs>
    <linearGradient id="warmGrad" x1="0" y1="0" x2="1" y2="1">
      <stop offset="0" stop-color="#FBBF24"/>
      <stop offset="0.5" stop-color="#F97316"/>
      <stop offset="1" stop-color="#EF4444"/>
    </linearGradient>
    
    <linearGradient id="mGrad" x1="96" y1="154" x2="330" y2="396" gradientUnits="userSpaceOnUse">
      <stop offset="0" stop-color="#FBBF24"/>
      <stop offset="0.5" stop-color="#F97316"/>
      <stop offset="1" stop-color="#EF4444"/>
    </linearGradient>
    
    <linearGradient id="dotGrad" x1="0" y1="0" x2="1" y2="1">
      <stop offset="0" stop-color="#FCD34D"/>
      <stop offset="0.6" stop-color="#F97316"/>
      <stop offset="1" stop-color="#DC2626"/>
    </linearGradient>
    
    <linearGradient id="barGrad" x1="0" y1="0" x2="1" y2="0">
      <stop offset="0" stop-color="#FBBF24"/>
      <stop offset="0.55" stop-color="#F97316"/>
      <stop offset="1" stop-color="#EF4444"/>
    </linearGradient>
  </defs>
  
  <!-- Rounded container - solid dark fill for light backgrounds -->
  <rect
     x="28.63"
     y="76.45"
     width="364.08"
     height="366.92"
     rx="97.75"
     fill="#1C1917"/>
  
  <!-- The M letterform -->
  <path
     d="M 96.0101,373.92604 V 174.53328 q 0,-19.72016 19.72016,-19.72016 13.14679,0 21.9113,13.14679 l 74.49839,129.2766 74.49839,-129.2766 q 8.76451,-13.14679 21.91129,-13.14679 19.72015,0 19.72015,19.72016 v 199.39276 q 0,21.91128 -21.91129,21.91128 -21.91128,0 -21.91128,-21.91128 V 259.98732 l -52.5871,92.02741 q -6.57339,10.95566 -19.72016,10.95566 -13.14677,0 -19.72016,-10.95566 l -52.5871,-92.02741 v 113.93872 q 0,21.91128 -21.9113,21.91128 -21.91129,0 -21.91129,-21.91128 z"
     fill="url(#mGrad)"/>
  
  <!-- Orbit dot -->
  <circle
     cx="212.71"
     cy="144.22"
     r="29.05"
     fill="url(#dotGrad)"/>
  
  <!-- Text: Manticore - dark for light backgrounds -->
  <text
     x="463.24"
     y="224.79"
     font-family="ui-sans-serif, system-ui, -apple-system, 'Segoe UI', Roboto, Helvetica, Arial, sans-serif"
     font-size="144.19"
     font-weight="800"
     letter-spacing="-1.2"
     fill="#1C1917">Manticore</text>
  
  <!-- Gradient bar -->
  <rect
     x="467.75"
     y="265.34"
     width="473.12"
     height="22.53"
     rx="11.26"
     fill="url(#barGrad)"/>
  
  <!-- Text: ORCHESTRATOR - slightly lighter dark -->
  <text
     x="463.02"
     y="401.14"
     font-family="ui-sans-serif, system-ui, -apple-system, 'Segoe UI', Roboto, Helvetica, Arial, sans-serif"
     font-size="82.15"
     font-weight="650"
     letter-spacing="2.4"
     fill="#292524"
     opacity="0.8">ORCHESTRATOR</text>
</svg>
