<svg xmlns="http://www.w3.org/2000/svg" viewBox="0 0 512 512" width="512" height="512">
  <defs>
    <linearGradient id="mGrad" x1="70" y1="80" x2="442" y2="432" gradientUnits="userSpaceOnUse">
      <stop offset="0" stop-color="#FBBF24"/>
      <stop offset="0.5" stop-color="#F97316"/>
      <stop offset="1" stop-color="#EF4444"/>
    </linearGradient>
    
    <linearGradient id="dotGrad" x1="0" y1="0" x2="1" y2="1">
      <stop offset="0" stop-color="#FCD34D"/>
      <stop offset="0.6" stop-color="#F97316"/>
      <stop offset="1" stop-color="#DC2626"/>
    </linearGradient>
  </defs>
  
  <!-- Rounded container - solid dark fill -->
  <rect
     x="24"
     y="24"
     width="464"
     height="464"
     rx="120"
     fill="#1C1917"/>
  
  <!-- The M letterform -->
  <path
     d="M 118,410 V 152 q 0,-25 25,-25 17,0 28,17 l 95,165 95,-165 q 11,-17 28,-17 25,0 25,25 v 258 q 0,28 -28,28 -28,0 -28,-28 V 262 l -67,118 q -8,14 -25,14 -17,0 -25,-14 L 174,262 v 148 q 0,28 -28,28 -28,0 -28,-28 z"
     fill="url(#mGrad)"/>
  
  <!-- Orbit dot -->
  <circle
     cx="266"
     cy="100"
     r="38"
     fill="url(#dotGrad)"/>
</svg>
